<?xml version="1.0" standalone="no"?>
<!DOCTYPE svg PUBLIC "-//W3C//DTD SVG 20010904//EN"
 "http://www.w3.org/TR/2001/REC-SVG-20010904/DTD/svg10.dtd">
<svg version="1.0" xmlns="http://www.w3.org/2000/svg"
 width="500.000000pt" height="332.000000pt" viewBox="0 0 500.000000 332.000000"
 preserveAspectRatio="xMidYMid meet">

<g transform="translate(0.000000,332.000000) scale(0.100000,-0.100000)"
fill="red" stroke="none">
<path d="M1640 3253 c-146 -26 -268 -51 -271 -56 -4 -5 -12 -7 -18 -3 -6 4
-20 2 -31 -4 -11 -6 -39 -12 -62 -14 -24 -2 -51 -7 -61 -11 -9 -4 -29 -4 -43
-1 -16 4 -23 3 -19 -3 3 -6 -6 -10 -22 -10 -44 0 -122 -8 -193 -21 -36 -6
-105 -17 -155 -25 -209 -33 -255 -43 -299 -69 -49 -29 -64 -50 -77 -106 -10
-44 4 -106 69 -310 28 -85 76 -238 107 -340 125 -408 167 -535 176 -544 13
-14 11 -5 -7 45 -8 24 -53 172 -100 329 -47 157 -107 355 -134 440 -57 179
-80 266 -79 295 0 19 1 19 9 -2 5 -13 12 -23 16 -23 3 0 3 7 0 16 -3 8 -2 12
3 9 6 -3 9 -13 9 -23 -1 -9 45 -95 102 -190 l102 -172 29 45 c46 73 97 98 297
146 98 23 171 44 165 46 -7 3 -13 9 -13 14 0 19 54 29 153 30 104 0 267 25
267 40 0 5 -7 6 -16 2 -10 -4 -22 1 -29 10 -10 14 -39 19 -146 26 -125 8 -128
8 -54 11 111 4 182 2 311 -12 108 -11 115 -10 270 22 87 18 161 34 163 36 8 8
-95 -2 -108 -11 -9 -5 -12 -4 -8 2 3 5 -10 15 -29 22 -18 7 -34 19 -34 27 0 8
-4 14 -10 14 -5 0 -10 6 -10 14 0 16 -63 31 -68 16 -6 -16 -27 -12 -47 10 -10
11 -22 20 -28 20 -5 0 1 -9 14 -19 19 -16 21 -21 9 -25 -59 -21 -130 -3 -127
33 0 11 4 18 7 16 14 -8 144 21 148 34 4 11 0 12 -14 6 -11 -5 -29 -8 -41 -8
-15 1 -20 -3 -16 -11 3 -6 2 -8 -2 -3 -5 4 -10 16 -12 27 -3 20 33 37 69 32
25 -4 12 33 -18 48 -36 20 -30 47 9 41 4 0 7 3 7 9 0 5 -17 7 -37 4 -21 -2
-56 -6 -78 -7 -22 -2 -41 -9 -41 -15 -1 -7 -2 -16 -3 -22 -2 -16 -18 -12 -18
5 0 8 5 11 10 8 6 -3 7 -1 4 4 -4 7 -22 7 -49 2 -98 -21 -108 -21 -108 -11 0
10 62 26 140 36 41 6 101 24 83 25 -18 1 -16 21 2 21 8 0 15 -7 15 -16 0 -11
5 -14 16 -10 9 3 24 6 35 6 26 0 24 18 -3 23 -21 4 -21 4 3 6 14 0 31 -5 38
-11 10 -11 12 -10 9 2 -2 10 14 18 57 27 74 16 213 21 240 9 18 -8 18 -7 -2
15 -37 38 -118 35 -423 -18z m-293 -89 c-3 -3 -12 -4 -19 -1 -8 3 -5 6 6 6 11
1 17 -2 13 -5z m-67 -8 c0 -2 -11 -6 -25 -8 -13 -3 -22 -1 -19 3 5 9 44 13 44
5z m-73 -12 c-3 -3 -12 -4 -19 -1 -8 3 -5 6 6 6 11 1 17 -2 13 -5z m-181 -96
c11 -11 -47 -30 -78 -25 -16 2 -28 0 -28 -5 0 -4 -16 -8 -35 -8 -48 0 -44 17
8 30 23 6 45 12 50 13 18 5 76 1 83 -5z m629 -18 c0 -8 -8 -16 -19 -18 -11 -3
-16 0 -12 7 4 6 3 11 -1 11 -5 0 -13 -8 -19 -18 -8 -13 -23 -17 -55 -16 -24 0
-50 -4 -57 -9 -8 -7 -19 -4 -35 9 -16 14 -18 14 -9 2 11 -14 10 -17 -8 -23
-12 -4 -27 -2 -32 3 -16 16 31 41 84 44 27 2 48 6 48 10 0 8 52 16 90 14 15
-1 25 -7 25 -16z m-837 -14 c10 -11 -9 -37 -33 -46 -43 -16 -135 -13 -142 6
-9 23 17 43 68 52 39 7 93 1 107 -12z m796 -65 l27 -28 -37 -6 c-42 -7 -56 -1
-34 14 12 9 12 10 -3 5 -9 -3 -26 2 -37 12 -19 16 -19 17 -3 24 35 13 60 8 87
-21z m-71 -42 c-15 -15 -85 -14 -97 2 -6 8 -20 19 -31 23 l-20 8 20 8 c11 4
26 4 34 0 9 -5 21 -2 29 7 13 12 18 11 43 -13 16 -15 26 -31 22 -35z m-174 -3
c26 -28 19 -35 -37 -38 -27 -1 -46 5 -58 17 -17 17 -17 18 1 31 29 21 69 17
94 -10z m-112 -18 c13 -12 23 -25 23 -30 0 -16 -37 -8 -56 13 -10 11 -26 18
-36 16 -10 -3 -20 -1 -23 3 -5 9 16 17 49 19 11 0 30 -9 43 -21z m-92 -12 c48
-35 -41 -74 -92 -41 l-27 18 23 18 c27 22 70 25 96 5z m-127 -28 c18 -18 15
-36 -8 -42 -11 -3 -29 -9 -40 -12 -11 -3 -20 -1 -20 5 0 6 9 11 20 11 12 0 20
7 20 16 0 13 -8 15 -35 12 -34 -4 -43 1 -28 15 11 12 78 8 91 -5z m-104 -33
c21 -31 20 -35 -4 -35 -11 0 -20 6 -20 13 -1 8 -5 7 -13 -4 -7 -8 -20 -18 -29
-22 -14 -5 -17 -1 -15 15 1 16 -5 23 -23 28 -22 6 -23 8 -7 15 9 4 26 5 37 2
11 -3 20 -1 20 4 0 19 38 8 54 -16z m313 -49 c-5 -14 -46 -21 -58 -9 -6 6 -7
17 -4 26 5 13 12 14 36 5 17 -6 28 -15 26 -22z"/>
<path d="M1099 2856 c16 -19 44 -21 39 -3 -3 6 -15 14 -28 15 -21 3 -22 2 -11
-12z"/>
<path d="M1775 3180 c3 -5 10 -10 16 -10 5 0 9 5 9 10 0 6 -7 10 -16 10 -8 0
-12 -4 -9 -10z"/>
<path d="M1866 3105 c-6 -16 3 -19 28 -9 9 3 13 10 10 15 -8 14 -31 11 -38 -6z"/>
<path d="M1799 3083 c-12 -16 -12 -17 1 -7 8 6 22 14 30 17 13 5 12 6 -1 6 -9
1 -23 -7 -30 -16z"/>
<path d="M1945 3060 c3 -5 8 -10 11 -10 2 0 4 5 4 10 0 6 -5 10 -11 10 -5 0
-7 -4 -4 -10z"/>
<path d="M1868 3043 c6 -2 18 -2 25 0 6 3 1 5 -13 5 -14 0 -19 -2 -12 -5z"/>
<path d="M1784 3029 c-4 -7 -1 -10 7 -7 8 3 25 -4 39 -16 l25 -21 -24 28 c-27
30 -36 33 -47 16z"/>
<path d="M1964 3029 c-4 -7 -3 -9 4 -5 6 3 13 -2 15 -11 4 -16 5 -16 6 -1 1
21 -15 32 -25 17z"/>
<path d="M1899 2996 c17 -18 19 -25 9 -29 -8 -4 -7 -6 5 -6 14 -1 17 4 12 20
-6 16 -4 20 6 13 12 -6 12 -5 0 9 -15 18 -26 23 -16 7 3 -5 1 -10 -4 -10 -6 0
-11 5 -11 10 0 6 -5 10 -12 10 -6 0 -1 -11 11 -24z"/>
<path d="M1953 2973 c0 -9 4 -10 14 -2 7 6 13 12 13 14 0 1 -6 2 -13 2 -8 0
-14 -6 -14 -14z"/>
<path d="M1660 2970 c0 -5 7 -10 16 -10 8 0 12 5 9 10 -3 6 -10 10 -16 10 -5
0 -9 -4 -9 -10z"/>
<path d="M3520 2941 c-8 -5 -39 -11 -68 -14 -77 -9 -114 -37 -180 -136 -75
-112 -118 -216 -148 -360 -14 -64 -34 -150 -44 -193 -30 -115 -26 -249 11
-385 9 -34 22 -51 60 -78 26 -19 56 -49 65 -67 l18 -33 8 38 c6 30 4 46 -9 68
-10 16 -21 29 -26 29 -5 0 -6 7 -3 16 3 9 2 12 -5 8 -7 -4 -9 4 -7 22 2 21 12
34 37 46 19 10 42 25 51 35 21 22 84 286 76 316 -3 13 -19 38 -36 57 -18 20
-30 45 -30 61 0 36 42 69 88 69 20 0 50 5 68 12 47 17 204 -12 254 -47 20 -14
45 -25 56 -25 29 0 124 -48 97 -49 -16 -1 -20 -6 -16 -22 5 -19 3 -18 -21 6
-22 22 -33 26 -59 21 -60 -12 -74 -62 -32 -109 14 -15 22 -27 17 -27 -23 0
-114 -101 -138 -154 -25 -56 -26 -63 -20 -162 l7 -104 -25 -12 c-30 -13 -37
-64 -10 -75 25 -9 -4 -23 -50 -23 -31 0 -45 -7 -71 -34 l-32 -34 -78 14 c-43
7 -80 13 -81 11 -1 -1 -5 -21 -9 -43 l-6 -42 98 -22 c130 -29 141 -34 149 -67
3 -15 11 -41 17 -58 7 -16 10 -36 9 -44 -2 -8 2 -12 11 -8 12 4 13 -1 5 -33
-8 -29 -6 -44 6 -68 15 -29 14 -32 -20 -99 -33 -63 -36 -73 -31 -133 3 -36 8
-75 12 -86 5 -16 -1 -31 -24 -57 -17 -19 -31 -39 -31 -45 0 -16 -30 -36 -79
-52 -40 -13 -48 -20 -59 -55 -7 -22 -16 -67 -19 -100 -8 -84 13 -107 122 -138
67 -19 83 -28 100 -54 11 -18 39 -41 62 -53 43 -20 97 -24 88 -5 -3 5 -8 18
-11 27 -4 13 -13 16 -29 12 -16 -4 -30 1 -44 15 -32 32 -13 58 37 52 10 -2 12
4 7 21 -10 31 -1 27 -111 55 -136 34 -137 35 -131 90 2 25 10 50 16 56 11 11
57 4 198 -30 18 -4 25 1 33 21 5 15 21 31 35 36 19 7 25 17 25 38 0 16 9 37
20 47 19 18 19 18 -7 49 -62 74 -81 172 -43 233 22 37 54 60 108 78 35 13 37
16 37 57 0 23 4 49 8 56 10 14 43 16 52 2 3 -5 26 -10 49 -10 24 0 62 -7 85
-15 23 -8 63 -17 89 -20 26 -3 66 -8 90 -11 l43 -6 -24 26 c-13 14 -33 26 -43
26 -18 1 -18 1 -1 11 9 5 21 8 26 4 6 -3 11 9 13 27 2 25 8 34 24 36 23 3 34
27 34 73 0 17 8 30 25 39 27 14 35 54 13 63 -8 3 -6 6 5 6 9 1 17 5 17 11 0
13 -96 2 -145 -17 -139 -53 -357 -7 -465 98 -162 157 -64 386 195 455 64 18
206 18 270 0 76 -20 147 -60 188 -105 47 -52 65 -88 76 -153 l10 -53 -2 58
c-1 31 1 57 6 57 16 0 7 138 -12 181 -11 24 -17 47 -14 53 3 5 1 6 -4 3 -6 -4
-16 0 -22 7 -10 12 -8 13 8 9 16 -4 21 -1 21 13 0 16 -2 17 -11 4 -8 -12 -9
-11 -4 6 4 16 -5 35 -36 70 -23 27 -48 50 -55 52 -8 2 -14 8 -14 13 0 5 -9 9
-20 9 -12 0 -20 7 -21 18 0 10 -3 12 -6 5 -2 -7 -12 -13 -21 -13 -10 0 3 14
29 33 38 27 54 32 87 29 55 -5 82 -32 82 -82 0 -45 18 -60 72 -60 18 0 47 -9
64 -19 52 -32 50 -89 -4 -140 -26 -23 -29 -35 -34 -107 -4 -53 -13 -95 -27
-122 -25 -50 -27 -80 -4 -89 20 -8 69 47 107 122 62 124 85 321 58 505 -7 47
-19 136 -27 199 -14 118 -24 140 -75 166 -64 32 -533 130 -645 134 -88 3 -326
41 -320 50 4 7 118 -8 180 -24 21 -5 27 -4 20 3 -10 11 -178 42 -220 42 -11 0
-27 -4 -35 -9z m105 -136 c83 -11 95 -16 95 -37 0 -15 5 -19 20 -15 11 3 18 1
15 -3 -3 -5 13 -11 34 -15 47 -8 76 -27 69 -46 -3 -8 -43 -32 -89 -55 l-84
-41 -137 6 c-122 5 -140 8 -159 27 l-21 21 72 64 c39 35 80 67 90 71 13 5 18
13 13 24 -5 12 -2 15 13 11 10 -3 42 -8 69 -12z m-208 -241 c-3 -3 -12 -4 -19
-1 -8 3 -5 6 6 6 11 1 17 -2 13 -5z m232 -20 c2 -2 -10 -4 -27 -4 -17 0 -34 4
-37 10 -5 9 53 3 64 -6z m-79 -74 c0 -5 -2 -10 -4 -10 -3 0 -8 5 -11 10 -3 6
-1 10 4 10 6 0 11 -4 11 -10z m760 -44 c0 -3 -4 -8 -10 -11 -5 -3 -10 -1 -10
4 0 6 5 11 10 11 6 0 10 -2 10 -4z m-550 -206 c-8 -5 -17 -7 -19 -4 -3 3 1 9
9 14 8 5 17 7 19 4 3 -3 -1 -9 -9 -14z m310 -116 c0 -2 -7 -4 -15 -4 -8 0 -15
4 -15 10 0 5 7 7 15 4 8 -4 15 -8 15 -10z m-483 -420 c-3 -3 -12 -4 -19 -1 -8
3 -5 6 6 6 11 1 17 -2 13 -5z m6 -21 c-7 -2 -21 -2 -30 0 -10 3 -4 5 12 5 17
0 24 -2 18 -5z m28 -373 c10 -6 19 -17 19 -24 0 -16 -61 -28 -75 -14 -6 6 -3
7 10 3 19 -6 19 -6 3 8 -37 30 -4 51 43 27z m506 -36 c-3 -3 -12 -4 -19 -1 -8
3 -5 6 6 6 11 1 17 -2 13 -5z m-563 -443 c20 -22 18 -49 -5 -64 -40 -25 -117
34 -89 68 18 21 73 19 94 -4z"/>
<path d="M3512 2714 c-16 -13 -21 -25 -16 -37 6 -17 8 -17 25 -1 25 22 101 14
140 -15 36 -26 41 -26 37 1 -7 50 -142 88 -186 52z"/>
<path d="M3765 2710 c-7 -12 -8 -11 33 -15 33 -3 43 8 16 19 -23 9 -42 7 -49
-4z"/>
<path d="M3412 2638 c3 -7 19 -14 37 -16 24 -3 32 0 29 10 -3 7 -19 14 -37 16
-24 3 -32 0 -29 -10z"/>
<path d="M2475 2933 c-11 -2 -126 -24 -255 -49 -465 -89 -1286 -261 -1384
-289 -41 -12 -67 -28 -100 -62 -25 -25 -48 -54 -51 -64 -4 -11 -11 -19 -16
-19 -17 0 -8 -50 54 -280 9 -30 40 -152 71 -270 90 -342 197 -718 211 -736 12
-17 14 -16 43 7 24 18 31 32 31 59 1 48 28 76 143 149 81 52 168 132 168 156
0 5 39 64 50 75 10 10 60 90 60 96 0 4 20 34 44 68 50 70 122 145 214 226 35
30 73 70 84 90 12 19 35 53 52 74 17 22 32 44 33 50 34 132 42 236 19 236 -22
0 -23 6 -31 106 l-7 91 106 28 c104 28 106 29 131 71 30 51 31 64 5 57 -13 -3
-20 0 -20 8 0 11 -2 11 -10 -1 -5 -8 -12 -11 -16 -7 -23 23 106 62 172 52 29
-4 42 -10 35 -15 -10 -6 -8 -17 9 -49 32 -64 78 -80 300 -105 71 -8 83 73 24
167 -48 77 -91 98 -169 80z m-756 -187 c-25 -6 -53 -17 -62 -24 -9 -8 -25 -11
-36 -7 -18 6 -102 -11 -467 -91 -110 -24 -167 -31 -109 -13 48 14 428 99 560
124 125 24 193 31 114 11z m40 -30 c-7 -6 -579 -130 -659 -142 -143 -22 103
37 460 110 157 32 209 41 199 32z m-764 -126 c-11 -5 -29 -8 -40 -8 -16 0 -15
2 5 8 34 11 60 11 35 0z m-68 -16 c-3 -3 -12 -4 -19 -1 -8 3 -5 6 6 6 11 1 17
-2 13 -5z m120 -10 c-3 -3 -12 -4 -19 -1 -8 3 -5 6 6 6 11 1 17 -2 13 -5z
m-40 -10 c-3 -3 -12 -4 -19 -1 -8 3 -5 6 6 6 11 1 17 -2 13 -5z m-284 -269 l6
-40 -14 35 c-15 40 -20 85 -6 60 5 -8 11 -33 14 -55z m902 -14 l-6 -39 37 8
c21 5 40 7 43 4 8 -8 -43 -54 -60 -54 -12 0 -21 -11 -26 -30 -4 -16 -33 -58
-63 -94 -43 -50 -58 -62 -71 -55 -12 6 -22 3 -34 -11 -17 -19 -17 -21 12 -48
17 -15 36 -26 42 -24 6 2 9 -2 8 -10 -2 -7 -2 -10 0 -5 3 4 9 4 15 1 6 -4 5 3
-2 15 -10 19 -7 27 24 59 20 20 36 41 36 46 0 5 10 1 21 -10 22 -19 22 -19 8
3 -18 29 1 54 26 33 13 -11 14 -8 9 20 -7 31 -6 32 15 21 21 -12 29 -31 12
-31 -5 0 -13 -9 -16 -20 -4 -11 -11 -18 -16 -15 -5 4 -9 0 -9 -7 0 -7 -12 -24
-25 -37 -22 -20 -28 -21 -43 -10 -14 11 -15 11 -4 -1 17 -20 15 -30 -5 -23
-14 5 -15 3 -6 -7 7 -8 8 -16 2 -24 -5 -6 -16 -20 -24 -31 -15 -20 -15 -20
-30 -1 -15 19 -15 19 -15 -2 0 -12 -2 -22 -5 -22 -3 0 -40 27 -82 60 -41 33
-69 60 -60 60 8 0 34 21 57 48 56 63 67 69 91 43 11 -12 24 -21 30 -21 5 0 -5
13 -23 29 l-32 28 38 47 c21 25 49 49 62 52 16 4 24 13 24 27 0 18 35 67 48
67 2 0 1 -18 -3 -39z m219 23 c9 -24 -3 -37 -21 -22 -14 11 -15 10 -9 -10 6
-16 1 -30 -17 -52 -14 -16 -28 -26 -31 -23 -3 4 -6 -2 -6 -13 -1 -16 -3 -15
-14 6 -18 32 -11 43 17 29 18 -9 20 -9 10 2 -18 19 -17 24 18 64 35 39 44 42
53 19z m-119 -5 c10 -15 -1 -23 -20 -15 -9 3 -13 10 -10 16 8 13 22 13 30 -1z
m-988 -71 c-3 -8 -6 -5 -6 6 -1 11 2 17 5 13 3 -3 4 -12 1 -19z m10 -40 c-3
-8 -6 -5 -6 6 -1 11 2 17 5 13 3 -3 4 -12 1 -19z m988 -16 c1 -12 -2 -22 -5
-22 -14 0 -32 29 -25 40 11 17 28 6 30 -18z m-968 -54 c-3 -8 -6 -5 -6 6 -1
11 2 17 5 13 3 -3 4 -12 1 -19z m913 11 c0 -6 7 -9 15 -5 17 6 21 -9 5 -19
-12 -7 -40 12 -40 26 0 5 5 9 10 9 6 0 10 -5 10 -11z m-883 -131 c-3 -8 -6 -5
-6 6 -1 11 2 17 5 13 3 -3 4 -12 1 -19z m548 -28 c4 -6 1 -17 -5 -25 -10 -12
-6 -19 17 -39 26 -23 27 -26 11 -42 -16 -16 -18 -16 -45 2 -15 10 -34 18 -40
19 -20 0 -18 7 13 52 30 44 39 50 49 33z m-528 -52 c-3 -8 -6 -5 -6 6 -1 11 2
17 5 13 3 -3 4 -12 1 -19z m480 -66 c29 -24 31 -29 18 -46 -13 -18 -15 -18
-51 5 l-37 23 7 -25 c18 -66 18 -76 -6 -103 -21 -25 -26 -26 -58 -16 -19 7
-41 14 -49 16 -12 4 -10 9 6 26 18 18 25 19 53 9 29 -10 31 -9 25 7 -17 41
-16 53 11 91 16 22 34 41 39 41 6 -1 24 -13 42 -28z m-460 -4 c-3 -8 -6 -5 -6
6 -1 11 2 17 5 13 3 -3 4 -12 1 -19z"/>
<path d="M1522 2161 l-24 -6 24 -21 c42 -38 48 -38 48 0 0 37 -5 40 -48 27z"/>
<path d="M1412 2028 c-7 -7 -12 -16 -12 -20 0 -15 15 -8 28 12 13 22 3 27 -16
8z"/>
<path d="M1577 2006 c-4 -10 -1 -13 8 -9 8 3 12 9 9 14 -7 12 -11 11 -17 -5z"/>
<path d="M1790 2245 c7 -9 15 -13 17 -11 7 7 -7 26 -19 26 -6 0 -6 -6 2 -15z"/>
<path d="M2204 2786 c-6 -26 10 -66 27 -66 6 0 7 9 3 23 -5 12 -8 32 -9 45 0
29 -13 28 -21 -2z"/>
<path d="M2260 2686 c0 -11 52 -55 85 -72 34 -19 29 -12 -37 40 -27 21 -48 35
-48 32z"/>
<path d="M2668 2678 c-3 -9 -23 -13 -58 -13 -52 0 -54 -1 -85 -45 -29 -40 -36
-45 -69 -44 -30 1 -34 -1 -24 -13 8 -10 -3 -9 -42 6 -36 14 -58 17 -64 11 -7
-7 -19 -1 -36 15 -15 14 -39 28 -53 31 -26 4 -27 2 -27 -36 0 -23 4 -39 9 -35
5 3 13 0 17 -6 4 -8 3 -9 -4 -5 -7 4 -12 3 -12 -3 0 -5 -10 -13 -21 -16 -12
-4 -17 -10 -12 -14 6 -3 9 -24 8 -46 -2 -22 3 -54 10 -70 8 -20 9 -39 4 -54
-5 -12 -7 -27 -4 -32 3 -5 1 -18 -5 -29 -8 -15 -7 -27 5 -49 12 -23 27 -33 72
-46 32 -9 63 -18 68 -21 11 -4 -52 3 -98 12 -38 8 -32 -20 17 -68 37 -37 37
-38 30 -95 -5 -32 -8 -78 -9 -103 0 -26 -6 -50 -14 -56 -8 -6 -11 -16 -7 -22
3 -6 -2 -12 -13 -14 -19 -3 -19 -6 10 -64 19 -39 41 -67 62 -79 18 -10 35 -23
39 -29 4 -5 -12 -45 -35 -88 l-42 -78 -143 -56 c-169 -66 -178 -66 -311 0
-134 68 -212 97 -226 86 -8 -7 -16 -3 -25 14 -15 29 -56 45 -44 18 4 -9 10
-37 13 -62 5 -39 11 -47 41 -62 43 -22 66 -22 125 -2 44 14 48 14 82 -6 21
-13 43 -18 55 -14 13 4 18 2 14 -4 -8 -13 17 -33 43 -35 12 -1 21 -4 21 -7 0
-7 -109 -53 -124 -53 -6 0 -69 27 -141 60 -273 126 -274 126 -293 111 -9 -7
-19 -15 -22 -19 -7 -7 -117 -82 -158 -106 l-33 -20 58 -13 c32 -8 60 -14 63
-14 3 -1 16 -10 28 -22 18 -17 45 -24 125 -32 137 -15 158 -14 224 9 58 20 85
20 36 1 -201 -80 -483 -183 -516 -189 -40 -6 -40 -7 -15 -14 31 -8 131 27 568
199 140 55 354 138 475 185 319 124 319 124 333 155 6 15 21 42 33 60 23 36
29 73 53 367 9 99 25 290 36 424 19 219 21 279 8 239z m-218 -573 c0 -8 -5
-15 -12 -15 -6 0 -8 3 -5 7 4 3 -1 15 -10 26 -17 19 -17 20 5 8 12 -6 22 -18
22 -26z"/>
<path d="M2058 2607 c-32 -12 -37 -32 -9 -40 25 -6 51 10 51 33 0 22 -3 23
-42 7z"/>
<path d="M2010 2455 c0 -8 2 -15 4 -15 2 0 6 7 10 15 3 8 1 15 -4 15 -6 0 -10
-7 -10 -15z"/>
<path d="M3352 2388 c-33 -33 9 -80 54 -59 41 18 25 71 -21 71 -12 0 -26 -5
-33 -12z"/>
<path d="M3611 2309 c-16 -29 -32 -66 -35 -84 -4 -20 -14 -35 -25 -38 -13 -3
-19 -18 -24 -58 -4 -29 -14 -60 -23 -68 -9 -9 -14 -11 -11 -5 5 8 -11 13 -46
17 -28 2 -53 4 -55 2 -1 -1 -11 -33 -21 -71 -44 -168 -63 -255 -58 -260 7 -7
124 -33 150 -34 11 0 23 13 32 33 7 18 25 39 40 47 23 12 26 19 20 45 -29 143
-12 215 72 306 l56 60 -18 38 c-11 24 -16 55 -13 80 2 23 0 41 -4 41 -4 0 -21
-23 -37 -51z m-50 -232 c-13 -13 -15 50 -3 80 5 13 8 5 10 -26 2 -24 -2 -49
-7 -54z"/>
<path d="M4440 2167 c-36 -18 -35 -68 2 -81 46 -16 108 39 77 69 -22 21 -52
25 -79 12z"/>
<path d="M2118 2124 c-46 -19 -61 -46 -19 -34 40 11 71 29 71 40 0 13 -8 12
-52 -6z"/>
<path d="M2006 2105 c-9 -26 -7 -32 5 -12 6 10 9 21 6 23 -2 3 -7 -2 -11 -11z"/>
<path d="M3951 2069 c-178 -18 -321 -141 -321 -277 0 -161 150 -272 370 -272
199 0 356 105 376 251 9 68 -11 124 -64 181 -88 94 -206 133 -361 117z"/>
<path d="M2042 2030 c-9 -25 -8 -30 7 -35 10 -3 31 -1 45 5 23 8 35 6 74 -17
26 -15 51 -32 55 -38 5 -6 7 -5 5 4 -4 13 -153 111 -170 111 -3 0 -11 -13 -16
-30z"/>
<path d="M2075 1895 c26 -22 96 -58 101 -52 2 2 -24 18 -58 36 -35 18 -54 25
-43 16z"/>
<path d="M3224 1865 c-14 -36 50 -62 76 -30 10 12 10 18 0 30 -16 20 -69 20
-76 0z"/>
<path d="M1978 1780 c18 -11 37 -20 42 -20 6 0 10 -5 10 -11 0 -5 5 -7 10 -4
6 3 10 2 10 -2 0 -11 79 -47 87 -40 2 3 -10 13 -29 23 -18 9 -56 30 -85 45
-59 33 -96 40 -45 9z"/>
<path d="M4396 1733 c-6 -14 -5 -15 5 -6 7 7 10 15 7 18 -3 3 -9 -2 -12 -12z"/>
<path d="M1515 1668 l-16 -33 20 23 c10 12 27 22 38 22 15 0 16 2 3 10 -23 15
-28 12 -45 -22z"/>
<path d="M3315 1688 c-11 -26 1 -47 30 -54 30 -7 55 10 55 38 0 17 -5 20 -35
16 -19 -2 -36 1 -39 7 -2 5 -7 2 -11 -7z"/>
<path d="M1880 1671 c12 -23 28 -30 54 -23 16 4 13 8 -15 23 -44 23 -52 23
-39 0z"/>
<path d="M1929 1629 c-27 -10 -40 -33 -32 -56 3 -7 10 -13 16 -13 6 0 18 -6
26 -14 9 -7 26 -17 38 -20 18 -6 23 -1 34 28 7 20 17 32 23 28 6 -3 19 -5 30
-3 11 1 16 -2 12 -8 -4 -6 -2 -11 3 -11 30 0 4 29 -46 53 -63 30 -66 30 -104
16z"/>
<path d="M844 1584 c3 -18 12 -47 21 -65 l15 -34 -4 31 c-3 18 -12 47 -21 65
l-15 34 4 -31z"/>
<path d="M1447 1572 c-21 -23 -22 -33 -2 -26 9 4 15 0 15 -10 0 -25 19 -19 26
8 11 44 -11 59 -39 28z"/>
<path d="M1783 1566 c-13 -6 -23 -14 -23 -19 0 -4 -9 -3 -20 3 -17 9 -20 8
-20 -13 0 -14 7 -30 15 -37 8 -7 15 -10 15 -6 0 3 9 -3 21 -15 19 -19 28 -20
103 -14 59 5 90 3 106 -5 25 -13 110 -20 110 -8 0 3 -17 12 -37 18 -21 7 -76
30 -122 52 -112 53 -122 56 -148 44z"/>
<path d="M2645 1569 c-4 -6 -4 -13 -1 -16 3 -4 6 -1 6 7 0 10 4 10 18 -1 15
-13 16 -12 3 4 -16 20 -18 20 -26 6z"/>
<path d="M2695 1520 c10 -11 20 -20 23 -20 3 0 -3 9 -13 20 -10 11 -20 20 -23
20 -3 0 3 -9 13 -20z"/>
<path d="M2680 1490 c12 -16 24 -30 26 -30 3 0 -4 14 -16 30 -12 17 -24 30
-26 30 -3 0 4 -13 16 -30z"/>
<path d="M2749 1481 c13 -12 28 -21 34 -21 12 0 11 0 -28 24 l-30 17 24 -20z"/>
<path d="M2726 1449 c6 -11 84 -52 89 -47 2 2 -19 15 -46 29 -27 15 -46 23
-43 18z"/>
<path d="M3169 1443 c-13 -16 -12 -17 4 -4 16 13 21 21 13 21 -2 0 -10 -8 -17
-17z"/>
<path d="M3075 1440 c-13 -6 -15 -9 -5 -9 8 0 22 4 30 9 18 12 2 12 -25 0z"/>
<path d="M2913 1423 c9 -2 23 -2 30 0 6 3 -1 5 -18 5 -16 0 -22 -2 -12 -5z"/>
<path d="M3013 1423 c9 -2 23 -2 30 0 6 3 -1 5 -18 5 -16 0 -22 -2 -12 -5z"/>
<path d="M3110 1410 c-19 -11 -31 -19 -27 -20 11 0 67 29 67 35 0 7 -1 7 -40
-15z"/>
<path d="M2878 1383 c7 -3 16 -2 19 1 4 3 -2 6 -13 5 -11 0 -14 -3 -6 -6z"/>
<path d="M3038 1383 c6 -2 18 -2 25 0 6 3 1 5 -13 5 -14 0 -19 -2 -12 -5z"/>
<path d="M2945 1369 c-4 -6 -23 -9 -43 -7 -30 2 -37 -1 -40 -17 -3 -11 -12
-24 -21 -30 -16 -9 -1 -15 80 -32 39 -7 89 22 89 52 0 21 -5 25 -31 25 -17 0
-28 4 -24 10 3 6 4 10 1 10 -3 0 -8 -5 -11 -11z"/>
<path d="M2627 1351 c14 -53 89 -89 186 -91 20 0 37 -3 37 -7 0 -5 20 -8 44
-8 52 0 42 7 -33 25 -39 9 -55 18 -59 32 -4 17 -11 19 -41 15 -20 -3 -44 -8
-54 -12 -13 -5 -27 3 -51 28 -22 24 -32 30 -29 18z"/>
<path d="M2032 1232 c-177 -84 -200 -98 -188 -111 16 -16 28 -11 299 119 108
51 127 64 117 76 -7 8 -15 14 -19 14 -3 -1 -97 -44 -209 -98z"/>
<path d="M1139 1293 c-13 -16 -12 -17 4 -4 9 7 17 15 17 17 0 8 -8 3 -21 -13z"/>
<path d="M3025 1290 c-10 -11 -32 -24 -49 -29 -22 -6 -10 -7 39 -4 39 3 81 10
95 15 l25 10 -25 13 c-35 20 -64 18 -85 -5z"/>
<path d="M2085 1185 c-105 -52 -192 -101 -195 -111 -5 -14 -9 -12 -23 10 -22
33 -41 34 -33 2 3 -12 3 -26 -1 -30 -19 -19 -3 -73 18 -60 5 3 9 -1 9 -9 0
-24 62 -4 193 62 64 32 117 57 117 54 0 -3 6 0 13 6 8 6 17 8 20 4 4 -3 7 -2
7 3 0 6 18 21 41 33 22 13 38 25 36 28 -3 2 -86 -37 -186 -86 -99 -50 -188
-91 -196 -91 -9 0 -15 9 -15 26 0 14 4 23 9 20 8 -5 180 69 221 94 8 6 49 27
90 49 41 21 74 42 73 45 -7 15 -2 19 8 6 8 -12 9 -10 7 9 -2 14 -7 26 -13 27
-5 2 -95 -39 -200 -91z"/>
<path d="M3857 1253 c-14 -13 -7 -43 12 -53 50 -26 87 4 51 40 -20 20 -50 26
-63 13z"/>
<path d="M3980 1177 l-35 -10 35 -7 c148 -27 300 -191 287 -308 -12 -108 -116
-169 -269 -159 l-77 5 27 -23 c74 -62 124 -85 185 -85 61 0 87 -9 125 -43 18
-17 36 -21 90 -21 37 0 84 3 104 7 l36 8 -44 67 c-47 70 -48 77 -27 162 7 28
14 35 33 35 38 0 40 40 3 53 -23 8 -34 23 -56 79 -15 37 -27 74 -27 81 0 22
32 62 44 56 6 -3 0 4 -14 15 -29 23 -131 67 -205 87 -59 16 -165 17 -215 1z
m354 -67 c4 -4 5 -13 2 -19 -20 -31 -106 9 -93 43 6 15 9 15 44 1 21 -9 42
-20 47 -25z m24 -480 c57 -35 33 -94 -30 -74 -35 10 -58 34 -58 60 0 38 39 44
88 14z"/>
<path d="M2593 1040 c-31 -13 -56 -55 -48 -80 8 -26 61 -60 93 -60 37 0 81 28
82 52 0 4 -11 -4 -25 -17 -37 -38 -99 -29 -131 20 -15 23 -15 27 0 50 9 14 23
25 31 25 7 0 17 5 20 10 7 12 7 12 -22 0z"/>
<path d="M2648 1038 c27 -14 28 -22 2 -48 -24 -24 -27 -38 -4 -20 40 34 37 81
-5 79 -11 0 -10 -3 7 -11z"/>
<path d="M2990 903 c-46 -17 -62 -61 -40 -104 11 -20 61 -50 82 -48 7 0 1 6
-14 12 -40 19 -68 48 -68 73 0 25 24 54 45 54 8 0 17 5 20 10 7 11 -1 12 -25
3z"/>
<path d="M3067 885 c30 -13 53 -41 53 -64 0 -16 -36 -13 -73 4 l-32 16 24 -21
c30 -26 84 -24 89 3 4 21 -50 77 -75 77 -11 -1 -6 -6 14 -15z"/>
<path d="M1663 880 c-64 -13 -147 -56 -203 -107 -67 -60 -102 -129 -108 -215
-4 -59 -1 -75 22 -122 45 -91 134 -146 261 -161 33 -4 71 -14 85 -23 14 -8 3
8 -25 36 -27 29 -52 52 -54 52 -3 0 0 -5 7 -12 22 -22 12 -30 -30 -23 -190 31
-292 197 -218 351 69 142 262 236 423 204 34 -6 72 -18 85 -26 13 -9 33 -14
45 -12 21 3 21 4 -6 22 -60 41 -182 56 -284 36z"/>
<path d="M1985 820 c-3 -6 -26 -10 -51 -10 -25 0 -58 -7 -75 -15 -16 -9 -35
-13 -41 -9 -7 5 -8 3 -3 -6 6 -10 4 -12 -7 -8 -17 7 -84 -29 -74 -39 7 -8 -13
-33 -26 -33 -6 0 -4 8 3 18 7 9 0 5 -17 -11 -32 -29 -87 -116 -64 -102 9 6 10
1 5 -16 -3 -13 7 -1 24 27 16 28 46 65 67 84 45 39 143 86 200 95 38 6 43 4
73 -30 l32 -37 -39 -27 c-98 -72 -148 -168 -140 -269 3 -32 8 -64 12 -73 4
-10 2 -16 -6 -17 -7 0 -35 -8 -63 -18 -27 -9 -56 -19 -63 -21 -18 -4 -5 -23
16 -23 9 0 43 11 74 24 l57 23 17 -25 c9 -13 17 -30 18 -37 2 -17 27 -47 34
-41 9 10 43 -15 36 -26 -4 -6 -3 -8 3 -5 6 4 31 -2 56 -13 64 -29 152 -44 176
-31 15 9 30 5 68 -14 71 -37 162 -51 240 -36 35 6 69 8 76 4 9 -5 9 -3 0 9 -7
8 -9 18 -5 23 4 4 -5 0 -21 -10 -38 -24 -163 -25 -234 -1 -51 17 -70 36 -38
36 27 0 129 57 159 89 17 17 26 31 20 31 -5 0 -22 -14 -38 -30 -32 -33 -113
-75 -162 -85 -28 -5 -37 -1 -78 41 -42 42 -55 72 -29 67 5 -1 10 5 10 13 0 12
-4 11 -19 -2 -17 -16 -19 -15 -35 22 -11 24 -17 66 -18 109 0 82 26 136 94
198 33 30 70 48 71 35 0 -2 7 -21 16 -43 l15 -40 -6 38 c-3 21 -8 44 -11 51
-5 13 26 29 77 40 34 7 88 -30 128 -90 17 -26 31 -51 31 -56 0 -4 7 -8 15 -8
12 0 9 -7 -10 -27 -14 -15 -25 -32 -25 -37 0 -6 6 -2 13 9 20 27 30 3 23 -53
-5 -39 -4 -43 5 -22 6 14 9 43 6 65 -3 34 1 46 27 75 17 19 35 36 39 36 4 1
21 8 38 14 27 12 32 10 56 -11 56 -52 94 -174 75 -242 -6 -21 -7 -37 -2 -37
13 0 23 85 16 131 -8 47 -39 114 -69 147 -18 20 -19 24 -7 33 24 16 162 4 214
-19 25 -12 46 -19 46 -17 0 17 134 -133 150 -167 10 -24 19 -37 19 -29 2 35
-117 190 -140 184 -5 -2 -9 1 -9 7 0 9 -52 40 -67 40 -5 1 -26 6 -48 12 -57
15 -143 12 -195 -7 -25 -9 -51 -17 -57 -17 -7 -1 -13 -5 -13 -10 0 -5 -4 -7
-9 -3 -6 3 -13 -1 -18 -8 -8 -14 -53 -41 -57 -35 -1 2 -14 24 -29 49 -15 26
-41 59 -59 74 l-33 28 66 -5 c47 -4 85 -15 129 -37 72 -37 93 -35 28 2 -59 34
-141 57 -205 57 -30 0 -68 7 -85 16 -17 9 -59 19 -92 21 -34 3 -74 14 -91 23
-47 28 -180 56 -190 40z m115 -37 l53 -17 -49 -16 -49 -15 -17 28 c-10 15 -18
30 -18 32 0 9 28 5 80 -12z m131 -75 l32 -32 -24 -16 c-54 -35 -80 -64 -108
-122 -56 -111 -38 -226 51 -323 l50 -55 -49 0 c-57 0 -142 26 -150 46 -3 8 -9
11 -14 8 -13 -8 -72 38 -106 82 -26 35 -26 36 -7 46 26 14 124 115 124 128 0
20 -18 9 -78 -51 -33 -34 -65 -58 -71 -55 -5 4 -13 27 -17 53 -13 89 37 190
127 256 51 38 61 27 56 -60 -2 -44 1 -63 9 -63 17 0 26 60 18 118 -6 48 -5 50
22 60 58 21 100 15 135 -20z m103 19 l39 -12 -51 -17 c-42 -13 -52 -14 -52 -3
0 8 -5 17 -12 21 -7 4 -8 3 -4 -4 4 -7 5 -12 2 -12 -3 0 -10 9 -16 20 -10 18
-8 20 22 19 18 0 51 -6 72 -12z m-640 -39 c-26 -43 -54 -79 -54 -72 0 11 49
84 56 84 3 0 2 -6 -2 -12z m247 -445 c13 -16 12 -17 -3 -4 -17 13 -22 21 -14
21 2 0 10 -8 17 -17z"/>
<path d="M2100 241 c0 -6 -8 -8 -17 -4 -14 5 -15 3 -6 -7 7 -8 16 -9 28 -2 12
6 14 11 6 16 -6 4 -11 3 -11 -3z"/>
<path d="M2047 219 c7 -7 15 -10 18 -7 3 3 -2 9 -12 12 -14 6 -15 5 -6 -5z"/>
<path d="M3752 764 c-16 -12 -16 -15 -1 -40 21 -35 92 -46 103 -17 4 10 4 19
-1 20 -28 10 -58 31 -56 40 3 14 -24 12 -45 -3z"/>
<path d="M190 555 l0 -195 40 0 40 0 1 83 1 82 27 -100 28 -100 36 -3 c35 -3
38 -1 59 44 l23 47 5 -69 5 -69 43 -3 42 -3 0 201 0 201 -67 -3 -67 -3 -17
-68 c-9 -38 -19 -71 -22 -73 -2 -3 -12 39 -22 93 -25 145 -17 133 -91 133
l-64 0 0 -195z"/>
<path d="M426 734 c-15 -38 -8 -44 54 -44 l60 0 0 30 c0 30 -1 30 -54 30 -40
0 -55 -4 -60 -16z"/>
<path d="M560 720 l0 -30 73 0 c85 0 141 -14 168 -41 16 -16 19 -33 19 -119
l0 -100 45 0 45 0 0 116 c0 107 1 116 20 121 16 4 20 14 20 44 l0 39 -195 0
-195 0 0 -30z"/>
<path d="M560 505 c0 -161 1 -167 23 -189 43 -43 140 -45 192 -5 25 20 25 22
25 164 0 185 -8 195 -161 195 l-79 0 0 -165z m140 -25 c0 -100 -2 -120 -15
-120 -12 0 -15 20 -15 120 0 100 3 120 15 120 13 0 15 -20 15 -120z"/>
<path d="M3870 621 c8 -5 31 -12 50 -15 33 -7 34 -6 16 9 -11 8 -34 15 -50 15
-22 -1 -27 -3 -16 -9z"/>
<path d="M4590 543 c8 -3 27 -12 43 -20 15 -7 27 -11 27 -9 0 8 -58 36 -72 35
-9 0 -8 -2 2 -6z"/>
<path d="M1600 488 c0 -68 9 -105 21 -86 12 18 11 31 -1 23 -5 -3 -8 19 -7 55
1 33 -1 60 -5 60 -5 0 -8 -24 -8 -52z"/>
<path d="M4550 517 c0 -20 41 -54 73 -62 51 -13 25 26 -40 59 -26 13 -33 14
-33 3z"/>
<path d="M4457 460 c52 -11 119 -54 127 -83 9 -33 7 -107 -3 -107 -4 0 -63 14
-131 30 -67 17 -124 29 -126 27 -4 -4 310 -95 336 -98 38 -4 41 0 39 63 -2 68
-18 93 -66 104 -16 4 -57 22 -92 40 -36 20 -77 34 -95 33 -28 -1 -26 -2 11 -9z"/>
<path d="M2495 446 c-3 -9 -7 -23 -10 -31 -2 -8 -1 -15 4 -15 10 0 25 50 17
58 -3 2 -8 -3 -11 -12z"/>
<path d="M3697 433 c-18 -17 -4 -31 33 -35 41 -4 51 7 28 30 -13 13 -50 16
-61 5z"/>
<path d="M2280 390 c-6 -11 -8 -20 -6 -20 3 0 10 9 16 20 6 11 8 20 6 20 -3 0
-10 -9 -16 -20z"/>
<path d="M2482 365 c0 -16 2 -22 5 -12 2 9 2 23 0 30 -3 6 -5 -1 -5 -18z"/>
<path d="M1620 371 c0 -6 4 -13 10 -16 6 -3 7 1 4 9 -7 18 -14 21 -14 7z"/>
<path d="M2520 346 c-8 -16 -18 -23 -29 -19 -13 4 -13 3 -2 -5 8 -6 10 -15 6
-22 -5 -9 -4 -11 4 -6 13 9 44 66 38 72 -2 2 -9 -7 -17 -20z"/>
<path d="M3161 334 c0 -11 3 -14 6 -6 3 7 2 16 -1 19 -3 4 -6 -2 -5 -13z"/>
<path d="M4288 333 c7 -3 16 -2 19 1 4 3 -2 6 -13 5 -11 0 -14 -3 -6 -6z"/>
<path d="M4090 290 c8 -5 22 -9 30 -9 10 0 8 3 -5 9 -27 12 -43 12 -25 0z"/>
<path d="M2744 238 c-16 -23 -53 -57 -82 -76 -30 -18 -51 -36 -49 -39 15 -15
167 120 167 148 0 16 -7 10 -36 -33z"/>
<path d="M4148 273 c7 -3 16 -2 19 1 4 3 -2 6 -13 5 -11 0 -14 -3 -6 -6z"/>
<path d="M2495 260 c-3 -5 -1 -10 5 -10 6 0 8 -5 4 -12 -4 -7 -3 -8 4 -4 6 4
9 13 5 21 -6 18 -10 19 -18 5z"/>
<path d="M4190 260 c8 -5 23 -10 33 -10 9 0 36 -17 60 -39 50 -46 78 -61 109
-61 13 0 29 -5 36 -12 9 -9 12 -9 12 0 0 7 -15 28 -32 47 -25 27 -49 40 -103
54 -104 28 -133 34 -115 21z"/>
<path d="M636 207 c3 -10 9 -15 12 -12 3 3 0 11 -7 18 -10 9 -11 8 -5 -6z"/>
<path d="M690 206 c0 -2 7 -7 16 -10 8 -3 12 -2 9 4 -6 10 -25 14 -25 6z"/>
<path d="M4490 200 c0 -5 10 -10 22 -10 12 0 32 -10 45 -22 19 -18 23 -19 23
-5 0 9 -10 23 -22 31 -25 18 -68 21 -68 6z"/>
<path d="M3076 122 c-3 -5 1 -9 9 -9 8 0 12 4 9 9 -3 4 -7 8 -9 8 -2 0 -6 -4
-9 -8z"/>
<path d="M2625 101 c-3 -5 -2 -12 3 -15 5 -3 9 1 9 9 0 17 -3 19 -12 6z"/>
</g>
</svg>
